<svg width="71" height="88" viewBox="0 0 71 88" fill="none" xmlns="http://www.w3.org/2000/svg">
<path fill-rule="evenodd" clip-rule="evenodd" d="M34.3612 4.38011C32.4791 11.3209 29.0521 17.5295 21.8216 27.1007C14.4378 36.8738 11.2675 42.6814 11.2349 46.4921C11.2234 47.8616 10.7991 48.9813 10.2934 48.9813C8.81928 48.9813 7.14311 41.6594 7.64787 37.4296C8.25704 32.319 6.61248 33.5419 3.19406 40.7407C-5.53447 59.1219 4.30129 80.0729 24.4843 86.0886C27.8328 87.087 32.6362 87.9035 35.1591 87.9035C41.5659 87.9035 51.0779 84.8622 56.5039 81.0786C68.717 72.5636 73.8106 54.9844 67.7927 42.1265C66.1165 38.5456 49.9927 17.3005 48.9516 17.3005C48.7878 17.3005 49.2724 18.9596 50.0301 20.9872C50.7867 23.0157 52.1114 28.2086 52.9724 32.5281C57.2711 54.0846 49.6316 68.5049 33.323 69.6191C26.421 70.0916 22.1568 68.227 20.244 63.8994C16.3285 55.0441 30.8374 45.51 41.3437 50.0331C44.4805 51.3836 44.9489 50.8595 45.7266 45.1307C47.0695 35.2345 42.88 13.6318 37.7758 4.14114L35.5489 0L34.3612 4.38011ZM15.3238 28.3888C12.9417 30.8508 9.92746 36.2999 10.5979 36.9335C10.8632 37.1843 11.9734 35.8229 13.0653 33.9076C14.1572 31.9922 15.7481 29.5085 16.6015 28.3888C17.4539 27.2691 17.9587 26.3521 17.7231 26.3521C17.4875 26.3521 16.408 27.2691 15.3238 28.3888Z" fill="url(#paint0_linear_213_1507)"/>
<defs>
<linearGradient id="paint0_linear_213_1507" x1="21.0968" y1="73.839" x2="52.7421" y2="1.75807" gradientUnits="userSpaceOnUse">
<stop stop-color="#FF4C29"/>
<stop offset="1" stop-color="#ED4247"/>
</linearGradient>
</defs>
</svg>
