<svg width="344" height="99" viewBox="0 0 344 99" fill="none" xmlns="http://www.w3.org/2000/svg">
<path d="M102.038 30.6039C105.515 30.6039 108.438 31.2916 110.807 32.6669C113.214 34.0423 115.047 36.1436 116.308 38.9708L113.901 40.8046C112.793 38.1303 111.227 36.2009 109.202 35.0166C107.215 33.8322 104.751 33.24 101.809 33.24C99.5552 33.24 97.6449 33.603 96.0785 34.3289C94.5121 35.0166 93.3086 35.9526 92.4681 37.1369C91.6658 38.2831 91.2646 39.5821 91.2646 41.0339C91.2646 42.7913 91.8377 44.2431 92.9839 45.3893C94.13 46.5354 96.2313 47.4523 99.2877 48.14L106.738 49.7447C110.444 50.547 113.042 51.7122 114.532 53.2404C116.06 54.7304 116.824 56.6598 116.824 59.0285C116.824 61.0916 116.213 62.9254 114.99 64.5301C113.806 66.1347 112.163 67.3763 110.062 68.2551C107.96 69.1338 105.496 69.5731 102.669 69.5731C99.9563 69.5731 97.5303 69.2102 95.3908 68.4843C93.2895 67.7202 91.513 66.6695 90.0612 65.3324C88.6094 63.957 87.5396 62.3142 86.8519 60.4039L89.3735 58.4554C89.9083 60.2511 90.7871 61.7984 92.0096 63.0974C93.2704 64.3581 94.8177 65.3133 96.6516 65.9627C98.4854 66.6122 100.529 66.937 102.783 66.937C104.923 66.937 106.833 66.6504 108.514 66.0774C110.195 65.4661 111.494 64.5874 112.411 63.4412C113.366 62.2951 113.844 60.8815 113.844 59.2004C113.844 57.5958 113.271 56.2395 112.125 55.1316C111.017 54.0236 109.03 53.1831 106.165 52.61L98.3708 50.8908C95.9639 50.3559 94.0154 49.6491 92.5254 48.7704C91.0354 47.8917 89.9465 46.8411 89.2589 45.6185C88.6094 44.3577 88.2846 42.9441 88.2846 41.3777C88.2846 39.4293 88.8386 37.6527 89.9465 36.0481C91.0545 34.4053 92.64 33.0872 94.7031 32.0939C96.7662 31.1005 99.2113 30.6039 102.038 30.6039ZM133.795 39.7731C136.469 39.7731 138.819 40.3653 140.844 41.5496C142.907 42.734 144.512 44.4532 145.658 46.7073C146.842 48.9232 147.434 51.5785 147.434 54.6731C147.434 57.7677 146.842 60.4421 145.658 62.6962C144.512 64.9121 142.907 66.6122 140.844 67.7966C138.819 68.981 136.469 69.5731 133.795 69.5731C131.121 69.5731 128.752 68.981 126.689 67.7966C124.664 66.6122 123.059 64.9121 121.875 62.6962C120.729 60.4421 120.156 57.7677 120.156 54.6731C120.156 51.5785 120.729 48.9232 121.875 46.7073C123.059 44.4532 124.664 42.734 126.689 41.5496C128.752 40.3653 131.121 39.7731 133.795 39.7731ZM133.795 42.2373C131.617 42.2373 129.726 42.734 128.122 43.7273C126.517 44.7207 125.256 46.1534 124.339 48.0254C123.461 49.8593 123.021 52.0752 123.021 54.6731C123.021 57.2329 123.461 59.4488 124.339 61.3208C125.256 63.1929 126.517 64.6256 128.122 65.6189C129.726 66.6122 131.617 67.1089 133.795 67.1089C135.973 67.1089 137.864 66.6122 139.469 65.6189C141.073 64.6256 142.315 63.1929 143.194 61.3208C144.11 59.4488 144.569 57.2329 144.569 54.6731C144.569 52.0752 144.11 49.8593 143.194 48.0254C142.315 46.1534 141.073 44.7207 139.469 43.7273C137.864 42.734 135.973 42.2373 133.795 42.2373ZM162.848 69.5731C160.861 69.5731 159.085 69.2102 157.518 68.4843C155.952 67.7584 154.71 66.6313 153.793 65.1031C152.914 63.5367 152.475 61.5883 152.475 59.2577V40.3462H155.341V58.57C155.341 61.5501 156.047 63.7086 157.461 65.0458C158.913 66.383 160.938 67.0516 163.536 67.0516C165.064 67.0516 166.439 66.7842 167.662 66.2493C168.922 65.7144 169.992 64.9694 170.871 64.0143C171.75 63.0592 172.418 61.9703 172.877 60.7477C173.373 59.5252 173.622 58.2071 173.622 56.7935V40.3462H176.487V69.0001H173.908L173.794 63.0974C172.953 65.1222 171.578 66.7078 169.667 67.8539C167.757 69.0001 165.484 69.5731 162.848 69.5731ZM183.811 69.0001V40.3462H186.39L186.619 47.5096L186.16 47.1085C186.695 45.5421 187.498 44.224 188.567 43.1543C189.637 42.0463 190.917 41.2058 192.407 40.6327C193.897 40.0596 195.502 39.7731 197.221 39.7731C199.36 39.7731 201.252 40.1743 202.894 40.9766C204.537 41.7789 205.817 42.9632 206.734 44.5296C207.689 46.0961 208.167 48.0636 208.167 50.4323V69.0001H205.301V51.3493C205.301 48.2164 204.518 45.9241 202.952 44.4723C201.423 43.0205 199.418 42.2946 196.934 42.2946C195.139 42.2946 193.458 42.7149 191.891 43.5554C190.363 44.3577 189.102 45.5421 188.109 47.1085C187.154 48.6749 186.676 50.5852 186.676 52.8393V69.0001H183.811ZM226.371 69.5731C223.887 69.5731 221.652 68.981 219.666 67.7966C217.679 66.6122 216.113 64.9121 214.967 62.6962C213.859 60.4421 213.305 57.7677 213.305 54.6731C213.305 51.5021 213.897 48.8086 215.081 46.5927C216.266 44.3768 217.87 42.6958 219.895 41.5496C221.92 40.3653 224.155 39.7731 226.6 39.7731C229.274 39.7731 231.548 40.4799 233.42 41.8935C235.33 43.3071 236.61 45.2746 237.259 47.7962L236.915 48.0254V27.1654H239.781V69.0001H237.202L237.03 61.0343L237.374 60.9197C237.03 62.7535 236.323 64.3199 235.254 65.6189C234.222 66.9179 232.923 67.9112 231.357 68.5989C229.828 69.2484 228.166 69.5731 226.371 69.5731ZM226.715 67.0516C228.74 67.0516 230.516 66.5549 232.044 65.5616C233.572 64.5301 234.757 63.0592 235.597 61.1489C236.476 59.2386 236.915 57.0036 236.915 54.4439C236.915 51.9223 236.476 49.7638 235.597 47.9681C234.757 46.1343 233.572 44.7398 232.044 43.7846C230.554 42.7913 228.816 42.2946 226.829 42.2946C223.544 42.2946 220.946 43.4026 219.035 45.6185C217.125 47.8344 216.17 50.8526 216.17 54.6731C216.17 58.4936 217.106 61.5118 218.978 63.7277C220.888 65.9436 223.467 67.0516 226.715 67.0516ZM275.622 38.7989H256.08V46.822H271.668V54.4439H256.08V69.0001H246.223V31.1769H275.622V38.7989ZM282.631 37.0223C280.645 37.0223 279.193 36.6594 278.276 35.9335C277.397 35.1694 276.958 33.985 276.958 32.3804C276.958 30.7376 277.397 29.5532 278.276 28.8273C279.193 28.0632 280.645 27.6812 282.631 27.6812C284.58 27.6812 286.013 28.0632 286.929 28.8273C287.846 29.5532 288.305 30.7376 288.305 32.3804C288.305 33.985 287.846 35.1694 286.929 35.9335C286.013 36.6594 284.58 37.0223 282.631 37.0223ZM287.503 40.3462V69.0001H277.76V40.3462H287.503ZM291.572 69.0001V40.3462H300.168L300.57 46.5354C301.295 44.3959 302.365 42.734 303.779 41.5496C305.231 40.3653 307.064 39.7731 309.28 39.7731C310.006 39.7731 310.618 39.8304 311.114 39.945C311.649 40.0596 312.069 40.2125 312.375 40.4035L311.401 48.4266C311.019 48.2738 310.522 48.1591 309.911 48.0827C309.338 47.9681 308.631 47.9108 307.79 47.9108C306.644 47.9108 305.574 48.1591 304.581 48.6558C303.588 49.1525 302.785 49.8975 302.174 50.8908C301.601 51.8459 301.315 53.0685 301.315 54.5585V69.0001H291.572ZM326.979 69.5731C323.808 69.5731 321.057 68.981 318.726 67.7966C316.434 66.6122 314.657 64.9121 313.397 62.6962C312.136 60.4803 311.506 57.8059 311.506 54.6731C311.506 51.5403 312.136 48.8659 313.397 46.65C314.657 44.4341 316.415 42.734 318.669 41.5496C320.961 40.3653 323.578 39.7731 326.52 39.7731C329.538 39.7731 332.098 40.3653 334.199 41.5496C336.339 42.6958 337.963 44.3004 339.071 46.3635C340.179 48.3884 340.732 50.7189 340.732 53.355C340.732 54.0427 340.713 54.7304 340.675 55.4181C340.637 56.1058 340.58 56.6789 340.503 57.1374H317.809V51.9223H336.205L331.563 53.6989C331.563 51.4066 331.143 49.6491 330.302 48.4266C329.5 47.204 328.239 46.5927 326.52 46.5927C325.298 46.5927 324.247 46.8793 323.368 47.4523C322.528 48.0254 321.878 48.9232 321.42 50.1458C321 51.3684 320.789 52.9348 320.789 54.845C320.789 56.7171 321.038 58.2453 321.534 59.4297C322.031 60.5758 322.738 61.4163 323.655 61.9512C324.572 62.4479 325.68 62.6962 326.979 62.6962C328.43 62.6962 329.577 62.4097 330.417 61.8366C331.296 61.2635 331.945 60.4612 332.366 59.4297L340.159 62.0085C339.625 63.6513 338.689 65.0458 337.351 66.192C336.052 67.2999 334.486 68.1404 332.652 68.7135C330.856 69.2866 328.965 69.5731 326.979 69.5731Z" fill="white"/>
<path fill-rule="evenodd" clip-rule="evenodd" d="M34.3612 4.38011C32.4791 11.3209 29.0521 17.5295 21.8216 27.1007C14.4378 36.8738 11.2675 42.6814 11.2349 46.4921C11.2234 47.8616 10.7991 48.9813 10.2934 48.9813C8.81928 48.9813 7.14311 41.6594 7.64787 37.4296C8.25704 32.319 6.61248 33.5419 3.19406 40.7407C-5.53447 59.1219 4.30129 80.0729 24.4843 86.0886C27.8328 87.087 32.6362 87.9035 35.1591 87.9035C41.5659 87.9035 51.0779 84.8622 56.5039 81.0786C68.7169 72.5636 73.8106 54.9844 67.7927 42.1265C66.1165 38.5456 49.9927 17.3005 48.9516 17.3005C48.7878 17.3005 49.2724 18.9596 50.0301 20.9872C50.7867 23.0157 52.1114 28.2086 52.9724 32.5281C57.2711 54.0846 49.6316 68.5049 33.323 69.6191C26.421 70.0916 22.1568 68.227 20.244 63.8994C16.3285 55.0441 30.8374 45.51 41.3437 50.0331C44.4805 51.3836 44.9489 50.8595 45.7266 45.1307C47.0695 35.2345 42.88 13.6318 37.7758 4.14114L35.5489 0L34.3612 4.38011ZM15.3238 28.3888C12.9417 30.8508 9.92746 36.2999 10.5979 36.9335C10.8632 37.1843 11.9734 35.8229 13.0653 33.9076C14.1572 31.9922 15.7481 29.5085 16.6015 28.3888C17.4539 27.2691 17.9587 26.3521 17.7231 26.3521C17.4875 26.3521 16.408 27.2691 15.3238 28.3888Z" fill="url(#paint0_linear_214_1508)"/>
<defs>
<linearGradient id="paint0_linear_214_1508" x1="21.0968" y1="73.839" x2="52.7421" y2="1.75807" gradientUnits="userSpaceOnUse">
<stop stop-color="#FF4C29"/>
<stop offset="1" stop-color="#ED4247"/>
</linearGradient>
</defs>
</svg>
