<svg width="16" height="15" viewBox="0 0 16 15" fill="none" xmlns="http://www.w3.org/2000/svg">
<path d="M13.8028 2.22126C13.0857 1.48674 12.123 1.05263 11.1054 1.005C10.0879 0.957378 9.08988 1.29972 8.3093 1.96414C8.21952 2.03294 8.11136 2.07261 7.99899 2.07796C7.88594 2.07461 7.77688 2.03474 7.68768 1.96414C6.90746 1.29934 5.90952 0.956744 4.89201 1.00438C3.8745 1.05201 2.91185 1.48639 2.19519 2.22126C1.42442 3.00379 1 4.04445 1 5.15117C1 6.25789 1.42442 7.29855 2.16917 8.05263L6.63563 13.3606C6.80394 13.5611 7.01309 13.7221 7.24865 13.8324C7.4842 13.9428 7.74055 14 7.99999 14C8.25944 14 8.51579 13.9428 8.75134 13.8324C8.9869 13.7221 9.19605 13.5611 9.36436 13.3606L13.8038 8.08108C14.184 7.69724 14.4855 7.24065 14.6909 6.73774C14.8962 6.23483 15.0013 5.69557 15 5.15117C15.0009 4.60674 14.8955 4.06752 14.69 3.56465C14.4845 3.06177 14.183 2.60519 13.8028 2.22126Z" stroke="white" stroke-width="1.5"/>
</svg>
