<svg width="12" height="11" viewBox="0 0 12 11" fill="none" xmlns="http://www.w3.org/2000/svg">
<path d="M9.79154 0L9.29837 0.57713C10.4912 1.68298 11.2423 3.2578 11.2423 5.0081C11.2423 6.75839 10.4904 8.33321 9.29837 9.43906L9.79078 10.0162C10.4868 9.38076 11.0427 8.60726 11.4231 7.745C11.8034 6.88275 11.9999 5.95069 12 5.00826C12.0001 4.06584 11.8037 3.13374 11.4235 2.27143C11.0432 1.40912 10.4874 0.635531 9.79154 0ZM8.07301 2.01201L7.5806 2.58914C7.90185 2.90488 8.15699 3.28144 8.33113 3.69685C8.50527 4.11226 8.59493 4.5582 8.59486 5.00863C8.59479 5.45907 8.50499 5.90498 8.33072 6.32033C8.15645 6.73569 7.90119 7.11217 7.57984 7.4278L8.07225 8.00493C8.8589 7.24854 9.35132 6.18656 9.35132 5.00885C9.35132 3.83114 8.85966 2.76841 8.07301 2.01201ZM0 2.73891V7.27728H2.12093L6.05116 9.54647V0.469722L2.12093 2.73891H0ZM5.29477 1.7798V8.23639L2.32365 6.52089H0.756396V3.4953H2.32365L5.29477 1.7798Z" fill="#F04442"/>
</svg>
