<svg width="32" height="40" viewBox="0 0 32 40" fill="none" xmlns="http://www.w3.org/2000/svg">
<path fill-rule="evenodd" clip-rule="evenodd" d="M15.6359 1.99314C14.7794 5.15153 13.22 7.97669 9.92978 12.332C6.56984 16.7792 5.12719 19.4219 5.11237 21.156C5.10714 21.7792 4.91406 22.2887 4.68393 22.2887C4.01317 22.2887 3.25043 18.9569 3.48012 17.0321C3.75732 14.7066 3.00897 15.263 1.45344 18.5388C-2.51843 26.9031 1.95728 36.4367 11.1414 39.1742C12.6652 39.6285 14.8509 40 15.9989 40C18.9143 40 23.2427 38.616 25.7118 36.8943C31.2693 33.0197 33.5871 25.0203 30.8487 19.1694C30.0859 17.54 22.7489 7.87248 22.2751 7.87248C22.2006 7.87248 22.4211 8.62747 22.7659 9.55011C22.7659 10.8568 24.4183 15.3253 17.1897 1.8844L16.1763 0L15.6359 1.99314ZM6.973 12.9181C5.88905 14.0385 4.51744 16.5181 4.82253 16.8064C4.94326 16.9205 5.44841 16.301 5.94527 15.4294C6.44214 14.5579 7.16608 13.4277 7.55442 12.9181C7.94232 12.4086 8.17201 11.9914 8.0648 11.9914C7.95758 11.9914 7.46638 12.4086 6.973 12.9181Z" fill="url(#paint0_linear_206_1090)"/>
<defs>
<linearGradient id="paint0_linear_206_1090" x1="4.08047" y1="32.2349" x2="18.4805" y2="-0.565128" gradientUnits="userSpaceOnUse">
<stop stop-color="#FF4C29"/>
<stop offset="1" stop-color="#ED4247"/>
</linearGradient>
</defs>
</svg>
